<?xml version="1.0" standalone="no"?><!DOCTYPE svg PUBLIC "-//W3C//DTD SVG 1.1//EN" "http://www.w3.org/Graphics/SVG/1.1/DTD/svg11.dtd"><svg t="1494896018474" class="icon" style="" viewBox="0 0 1024 1024" version="1.1" xmlns="http://www.w3.org/2000/svg" p-id="1151" xmlns:xlink="http://www.w3.org/1999/xlink" width="200" height="200"><defs><style type="text/css">@font-face { font-family: uc-nexus-iconfont; src: url("chrome-extension://pogijhnlcfmcppgimcaccdkmbedjkmhi/res/font_9qmmi8b8jsxxbt9.woff") format("woff"), url("chrome-extension://pogijhnlcfmcppgimcaccdkmbedjkmhi/res/font_9qmmi8b8jsxxbt9.ttf") format("truetype"); }
</style></defs><path d="M859.38176 202.19904 859.3408 202.15808c0.02048 0.02048 0.02048 0.02048 0.04096 0.04096L859.38176 202.19904 859.38176 202.19904zM859.36128 202.19904c-13.98784-12.5952-32.33792-19.51744-51.38432-19.51744 0 0 0 0 0 0-2.08896 0-3.52256 0.02048-5.2224 0.14336-2.00704 0.2048-11.4688 0.53248-21.11488 0.53248-33.28 0-69.36576-3.05152-101.25312-10.5472-6.53312-1.536-13.7216-4.096-21.42208-7.5776-14.848-6.71744-31.00672-16.60928-48.76288-29.42976-12.96384-9.33888-49.68448-38.62528-54.5792-41.75872-12.43136-8.02816-26.95168-12.20608-41.79968-12.20608-14.72512 0-29.22496 4.15744-41.6768 12.0832 2.33472-1.536-31.70304 28.83584-51.44576 43.1104-23.63392 17.1008-46.44864 29.3888-66.8672 34.9184-1.14688 0.3072-2.29376 0.59392-3.42016 0.86016-31.78496 7.4752-68.44416 10.5472-102.01088 10.5472-9.728 0-18.92352-0.32768-20.54144-0.47104l-0.59392-0.04096c-1.69984-0.12288-3.11296-0.14336-5.14048-0.14336-19.0464 0-37.43744 6.92224-51.46624 19.49696C155.21792 216.02304 146.39104 235.52 146.39104 256l0 127.6928c0 213.23776 63.32416 363.47904 169.984 460.16512 38.15424 34.59072 79.38048 59.88352 121.1392 77.33248 26.33728 10.99776 47.73888 16.95744 62.95552 19.68128 4.66944 0.75776 9.0112 1.10592 13.39392 1.10592 4.38272 0 8.78592-0.34816 13.06624-1.06496 15.64672-2.78528 37.08928-8.704 63.56992-19.70176 42.02496-17.44896 83.53792-42.72128 121.9584-77.29152 107.43808-96.68608 171.2128-246.94784 171.2128-460.22656L883.67104 256C883.67104 235.52 874.82368 216.04352 859.36128 202.19904zM650.77248 310.45632c-6.79936-4.36224-15.9744-2.60096-20.50048 3.95264l-111.94368 161.9968-113.84832-162.07872c-4.58752-6.51264-13.78304-8.23296-20.54144-3.80928-6.7584 4.42368-8.54016 13.27104-3.95264 19.80416l106.68032 151.87968L387.4816 482.2016c-8.17152 0-14.78656 6.38976-14.78656 14.25408 0 7.8848 6.61504 14.25408 14.78656 14.25408l112.76288 0 0 63.13984L387.4816 573.8496c-8.17152 0-14.78656 6.38976-14.78656 14.25408 0 7.86432 6.61504 14.25408 14.78656 14.25408l112.76288 0 0 140.02176c0 7.86432 6.61504 14.25408 14.78656 14.25408s14.78656-6.38976 14.78656-14.25408l0-140.02176 112.76288 0c8.17152 0 14.78656-6.38976 14.78656-14.25408 0-7.8848-6.61504-14.25408-14.78656-14.25408L529.8176 573.8496l0-62.64832 0.32768-0.49152 112.41472 0c8.17152 0 14.78656-6.38976 14.78656-14.25408s-6.61504-14.25408-14.78656-14.25408l-92.71296 0 105.02144-151.98208C659.41504 323.6864 657.57184 314.83904 650.77248 310.45632L650.77248 310.45632z" p-id="1152" fill="#df9c1f"></path></svg>