<?xml version="1.0" standalone="no"?><!DOCTYPE svg PUBLIC "-//W3C//DTD SVG 1.1//EN" "http://www.w3.org/Graphics/SVG/1.1/DTD/svg11.dtd"><svg t="1494861838366" class="icon" style="" viewBox="0 0 1024 1024" version="1.1" xmlns="http://www.w3.org/2000/svg" p-id="11349" xmlns:xlink="http://www.w3.org/1999/xlink" width="200" height="200"><defs><style type="text/css"></style></defs><path d="M1024 1024l0-78.762667-78.762667 0L1024 1024zM1024 1024M275.694933 78.762667l0 196.9152 78.762667 78.762667L354.4576 0 0 0l78.762667 78.762667L275.694933 78.762667zM275.694933 78.762667M945.237333 630.152533 669.5424 630.152533l0 39.389867 78.762667 78.762667 0-39.389867 78.762667 0 0 78.762667-39.389867 0 157.5424 157.5424 0-78.762667L1024 866.4576l0-78.762667 0-78.762667-78.762667 0L945.237333 630.152533zM945.237333 630.152533M236.305067 236.305067 236.305067 118.152533 118.152533 118.152533 236.305067 236.305067zM236.305067 236.305067M433.237333 0 512 0l0 78.762667-78.762667 0L433.237333 0 433.237333 0zM433.237333 0M669.5424 0l0 354.4576L1024 354.4576 1024 0 669.5424 0 669.5424 0zM945.237333 275.694933 748.305067 275.694933 748.305067 78.762667l196.932267 0L945.237333 275.694933 945.237333 275.694933zM945.237333 275.694933M787.694933 118.152533l118.152533 0 0 118.152533-118.152533 0L787.694933 118.152533 787.694933 118.152533zM787.694933 118.152533M590.762667 433.237333l0-118.152533L512 315.0848l0 118.152533-78.762667 0L512 512l78.762667 0 0 78.762667 118.152533 0L708.9152 512l78.762667 0 0-78.762667L590.762667 433.237333zM590.762667 433.237333M590.762667 236.305067 590.762667 78.762667 512 78.762667l0 78.762667-78.762667 0 0 157.525333L512 315.050667l0-78.762667L590.762667 236.288zM590.762667 236.305067M945.237333 433.237333l-78.762667 0L866.474667 512l-78.762667 0 0 78.762667L1024 590.762667 1024 512l-78.762667 0L945.237333 433.237333zM945.237333 433.237333" p-id="11350" fill="#ff4400"></path></svg>