<?xml version="1.0" standalone="no"?><!DOCTYPE svg PUBLIC "-//W3C//DTD SVG 1.1//EN" "http://www.w3.org/Graphics/SVG/1.1/DTD/svg11.dtd"><svg t="1494853688855" class="icon" style="" viewBox="0 0 1218 1024" version="1.1" xmlns="http://www.w3.org/2000/svg" p-id="2990" xmlns:xlink="http://www.w3.org/1999/xlink" width="237.890625" height="200"><defs><style type="text/css"></style></defs><path d="M36.352 9.216C12.8 22.016 0 47.104 0 80.896c0 32.256 0.512 32.768 46.08 96.256l35.84 49.152V81.92h1054.72v675.84l-335.36 1.024-334.848 1.536 25.088 34.304 25.6 34.816h326.144c318.464 0 327.168-0.512 343.552-10.24 32.768-19.968 31.744-9.216 31.744-405.504 0-338.944-0.512-360.96-9.216-377.344-5.12-9.728-17.408-22.016-27.136-27.136C1165.824 0.512 1137.664 0 609.28 0S52.736 0.512 36.352 9.216z" p-id="2991" fill="#ff4400"></path><path d="M291.84 372.224l0.512 147.456 32.768 44.544L358.4 609.28h573.44V225.28H291.84v146.944zM631.296 858.624c-48.64 1.024-88.576 3.072-88.576 4.608 0 1.536 25.6 38.4 57.344 81.92l57.344 78.848H757.76c105.472 0 112.64-1.536 112.64-23.552 0-15.872-10.24-22.016-43.52-27.648-49.664-8.192-78.336-39.936-83.456-93.696-2.048-20.992-3.584-24.064-13.312-23.04-5.632 0.512-50.688 2.048-98.816 2.56z" p-id="2992" fill="#ff4400"></path></svg>