<?xml version="1.0" standalone="no"?><!DOCTYPE svg PUBLIC "-//W3C//DTD SVG 1.1//EN" "http://www.w3.org/Graphics/SVG/1.1/DTD/svg11.dtd"><svg t="1494900256282" class="icon" style="" viewBox="0 0 1024 1024" version="1.1" xmlns="http://www.w3.org/2000/svg" p-id="5740" xmlns:xlink="http://www.w3.org/1999/xlink" width="200" height="200"><defs><style type="text/css">@font-face { font-family: uc-nexus-iconfont; src: url("chrome-extension://pogijhnlcfmcppgimcaccdkmbedjkmhi/res/font_9qmmi8b8jsxxbt9.woff") format("woff"), url("chrome-extension://pogijhnlcfmcppgimcaccdkmbedjkmhi/res/font_9qmmi8b8jsxxbt9.ttf") format("truetype"); }
</style></defs><path d="M334.463 459.012h355.073V325.86q0-73.5-52.018-125.519t-125.519-52.018-125.519 52.018-52.018 125.519v133.152z m576.995 66.577v399.458q0 27.74-19.44 47.136t-47.136 19.44H179.121q-27.74 0-47.136-19.44t-19.44-47.136V525.589q0-27.74 19.44-47.136t47.136-19.44h22.192V325.861q0-127.605 91.565-219.124t219.124-91.565 219.124 91.565 91.565 219.124v133.152h22.192q27.74 0 47.136 19.44t19.44 47.136z" fill="#ffffff" p-id="5741"></path></svg>