<?xml version="1.0" standalone="no"?><!DOCTYPE svg PUBLIC "-//W3C//DTD SVG 1.1//EN" "http://www.w3.org/Graphics/SVG/1.1/DTD/svg11.dtd"><svg t="1494900176669" class="icon" style="" viewBox="0 0 1024 1024" version="1.1" xmlns="http://www.w3.org/2000/svg" p-id="4439" xmlns:xlink="http://www.w3.org/1999/xlink" width="200" height="200"><defs><style type="text/css">@font-face { font-family: uc-nexus-iconfont; src: url("chrome-extension://pogijhnlcfmcppgimcaccdkmbedjkmhi/res/font_9qmmi8b8jsxxbt9.woff") format("woff"), url("chrome-extension://pogijhnlcfmcppgimcaccdkmbedjkmhi/res/font_9qmmi8b8jsxxbt9.ttf") format("truetype"); }
</style></defs><path d="M507.977143 36.571429a215.771429 215.771429 0 0 1 51.2 6.180571 252.123429 252.123429 0 0 1 47.908571 16.603429 216.832 216.832 0 0 1 39.862857 23.734857 143.945143 143.945143 0 0 1 27.062858 26.587428 209.517714 209.517714 0 0 1 34.011428 66.889143 489.435429 489.435429 0 0 1 14.994286 69.741714 595.346286 595.346286 0 0 1 4.754286 76.8 36.169143 36.169143 0 0 1 9.874285 12.324572 72.704 72.704 0 0 1 5.485715 17.078857 82.468571 82.468571 0 0 1 0.731428 25.6 104.448 104.448 0 0 1-7.68 31.780571 66.048 66.048 0 0 1-13.165714 18.505143 43.008 43.008 0 0 1-16.822857 10.422857q-4.388571 16.128-8.777143 30.354286c-3.291429 8.228571-6.582857 16.274286-10.24 24.210286a65.828571 65.828571 0 0 1-13.165714 18.505143c-11.337143 9.508571-20.48 17.554286-27.794286 24.210285a58.916571 58.916571 0 0 0-14.262857 33.682286 127.268571 127.268571 0 0 0-1.828572 28.928 87.771429 87.771429 0 0 0 7.68 29.257143 91.867429 91.867429 0 0 0 20.48 27.977143 129.133714 129.133714 0 0 0 39.131429 23.734857 410.075429 410.075429 0 0 0 48.64 17.078857 528.054857 528.054857 0 0 1 51.2 17.554286 182.198857 182.198857 0 0 1 44.251428 24.685714 80.018286 80.018286 0 0 1 27.428572 40.228572 212.114286 212.114286 0 0 1 6.582857 37.485714q2.194286 22.308571 2.194286 45.092571a262.217143 262.217143 0 0 1-3.291429 42.715429 84.809143 84.809143 0 0 1-9.142857 30.354286 52.443429 52.443429 0 0 1-25.6 13.275428 494.518857 494.518857 0 0 1-51.565714 12.8c-20.845714 4.096-43.52 7.753143-69.12 10.971429s-50.468571 5.851429-76.068572 8.082285-50.468571 3.949714-73.874285 5.229715-43.885714 1.901714-61.074286 1.901714-37.302857-0.621714-60.342857-1.901714-46.445714-2.998857-70.948572-5.229715-48.64-4.754286-72.777143-7.606857-46.08-5.851429-65.828571-8.996571-36.205714-6.326857-50.102857-9.508572a65.828571 65.828571 0 0 1-25.6-9.508571 83.492571 83.492571 0 0 1-13.897143-46.482286 376.466286 376.466286 0 0 1 4.022857-100.608 79.945143 79.945143 0 0 1 26.331429-53.613714 171.483429 171.483429 0 0 1 50.834285-29.257143q29.074286-10.971429 60.342858-19.456a186.843429 186.843429 0 0 0 55.222857-24.685714 130.633143 130.633143 0 0 0 28.525714-23.734857 77.897143 77.897143 0 0 0 14.262857-22.784 58.843429 58.843429 0 0 0 4.754286-23.734857q0-12.324571-1.097143-27.538286a53.211429 53.211429 0 0 0-14.262857-34.633143c-8.411429-8.521143-17.554286-17.225143-27.794286-26.112a58.514286 58.514286 0 0 1-12.434286-18.505143q-4.937143-11.849143-9.874285-24.210286-4.388571-14.226286-8.777143-30.354285a39.716571 39.716571 0 0 1-12.434286-6.656 74.349714 74.349714 0 0 1-11.702857-13.275429 79.36 79.36 0 0 1-10.605714-24.685714 66.523429 66.523429 0 0 1-4.022857-29.257143 92.379429 92.379429 0 0 1 4.754285-22.784 63.049143 63.049143 0 0 1 11.702857-19.931429 476.562286 476.562286 0 0 1 3.657143-72.118857 443.757714 443.757714 0 0 1 12.8-65.462857 204.324571 204.324571 0 0 1 28.16-62.646857 175.542857 175.542857 0 0 1 38.034286-43.190857 189.549714 189.549714 0 0 1 42.788571-26.112 177.554286 177.554286 0 0 1 43.885715-12.8 281.6 281.6 0 0 1 42.422857-3.328z" p-id="4440" fill="#ffffff"></path></svg>