<?xml version="1.0" standalone="no"?><!DOCTYPE svg PUBLIC "-//W3C//DTD SVG 1.1//EN" "http://www.w3.org/Graphics/SVG/1.1/DTD/svg11.dtd"><svg t="1494896142407" class="icon" style="" viewBox="0 0 1024 1024" version="1.1" xmlns="http://www.w3.org/2000/svg" p-id="3200" xmlns:xlink="http://www.w3.org/1999/xlink" width="200" height="200"><defs><style type="text/css">@font-face { font-family: uc-nexus-iconfont; src: url("chrome-extension://pogijhnlcfmcppgimcaccdkmbedjkmhi/res/font_9qmmi8b8jsxxbt9.woff") format("woff"), url("chrome-extension://pogijhnlcfmcppgimcaccdkmbedjkmhi/res/font_9qmmi8b8jsxxbt9.ttf") format("truetype"); }
</style></defs><path d="M215.7109 641.321344c0-38.758746 23.058159-80.881099 117.409037-86.976934 94.350878-6.091742 221.770919 66.179258 221.770919 66.179258S460.779432 733.969441 349.892949 733.969441 215.7109 680.081113 215.7109 641.321344zM674.216545 583.732741c0 0 20.139689-29.815049 41.618886-88.280626 21.473057-58.459437 24.541953-90.603531 24.541953-90.603531l-169.46974-1.397836 0-57.299007 205.242478-1.400906L776.150122 304.22177 570.907645 304.22177l0-92.236727-100.55723 0 0 92.236727L278.886755 304.22177l0 40.528042 191.462636-1.396813 0 61.494563L316.762387 404.847561l0 32.144094 316.127937 0c0 0-3.455705 26.042119-15.568581 58.459437-12.111852 32.422434-24.590048 60.784388-24.590048 60.784388s-148.445914-51.443649-226.685859-51.443649c-78.240969 0-173.361373 31.128975-182.566012 121.410164-9.199523 90.27505 44.304042 139.17476 119.667473 157.204391 75.359338 18.034748 144.964626-0.225127 205.573006-29.571503 60.606333-29.349445 120.035864-96.034217 120.035864-96.034217L871.876324 774.727727c-81.450057 111.088074-212.846666 183.262884-361.151363 183.262884-247.211335 0-447.615621-200.405309-447.615621-447.615621S263.512602 62.760392 510.723937 62.760392s447.615621 200.405309 447.615621 447.615621c0 55.756885-10.276041 109.091604-28.904307 158.324912L674.216545 583.732741z" p-id="3201" fill="#1ba9ee"></path></svg>